<svg width="1440" height="1024" viewBox="0 0 1440 1024" fill="none" xmlns="http://www.w3.org/2000/svg">
<path d="M2300.39 691.641C2307.97 619.826 2220.19 580.518 2150.3 559.456C2076.72 536.658 2000.61 521.136 1925.75 502.137C1850.99 483.143 1776.65 461.913 1707.48 431.459C1637.78 401.702 891.779 -18.8961 845.87 -71.9998C888.562 -16.8188 1636.39 403.963 1705.25 434.963C1774.99 465.69 1849.72 486.859 1924.71 505.141C1999.68 523.825 2075.91 538.949 2149.42 561.262C2221.42 582.763 2305.09 619.423 2300.4 691.562L2300.39 691.641Z" fill="#9ABFF5" fill-opacity="0.7"/>
<path d="M2294.86 504.071C2285.76 403.726 2102.83 339.666 1832.41 288.945C1589.46 242.114 1337.05 197.645 1131.18 131.988C992.432 89.345 942.499 63.5075 848.369 10.494C928.447 64.3323 985.972 91.6623 1120.65 135.579C1327.13 202.023 1583.28 245.411 1827.91 291.802C2106.26 343.819 2273.49 402.507 2294.86 504.071Z" fill="#6BC599"/>
<path d="M1256.39 1405.64C1263.97 1333.83 1176.19 1294.52 1106.3 1273.46C1032.72 1250.66 956.606 1235.14 881.751 1216.14C806.995 1197.14 732.652 1175.91 663.475 1145.46C593.776 1115.7 -152.221 695.104 -198.13 642C-155.438 697.181 592.388 1117.96 661.245 1148.96C730.987 1179.69 805.721 1200.86 880.712 1219.14C955.681 1237.82 1031.91 1252.95 1105.42 1275.26C1177.42 1296.76 1261.09 1333.42 1256.4 1405.56L1256.39 1405.64Z" fill="#9ABFF5" fill-opacity="0.7"/>
<path d="M1250.86 1218.07C1241.76 1117.73 1058.83 1053.67 788.407 1002.94C545.465 956.114 293.05 911.645 87.1841 845.988C-51.5676 803.345 -101.5 777.508 -195.63 724.494C-115.552 778.332 -58.0274 805.662 76.6503 849.579C283.135 916.023 539.282 959.411 783.914 1005.8C1062.27 1057.82 1229.49 1116.51 1250.86 1218.07Z" fill="#6BC599"/>
</svg>
