<svg width="1440" height="764" viewBox="0 0 1440 764" fill="none" xmlns="http://www.w3.org/2000/svg">
<path d="M1448.52 763.641C1456.1 691.826 1368.32 652.518 1298.43 631.456C1224.85 608.658 1148.74 593.136 1073.88 574.137C999.125 555.143 924.782 533.913 855.605 503.459C785.906 473.702 39.9096 53.1039 -6.00012 0.000152992C36.6919 55.1812 784.518 475.963 853.375 506.963C923.117 537.69 997.851 558.859 1072.84 577.141C1147.81 595.825 1224.04 610.949 1297.55 633.262C1369.55 654.763 1453.22 691.423 1448.53 763.562L1448.52 763.641Z" fill="#9ABFF5" fill-opacity="0.7"/>
<path d="M1442.99 601.077C1433.89 500.732 1250.96 436.672 980.537 385.95C737.595 339.12 485.18 294.651 279.314 228.994C140.562 186.351 90.6297 160.513 -3.50007 107.5C76.5777 161.338 134.103 188.668 268.78 232.585C475.265 299.029 731.412 342.417 976.044 388.808C1254.4 440.825 1421.62 499.512 1442.99 601.077Z" fill="#6BC599"/>
</svg>
