<?xml version="1.0" encoding="UTF-8"?>
<svg xmlns="http://www.w3.org/2000/svg" version="1.1" viewBox="0 0 777 556">
  <defs>
    <style>
      .cls-1 {
        fill: #777;
      }

      .cls-2 {
        fill: #39d98a;
        fill-rule: evenodd;
      }

      .cls-3 {
        fill: #0063f7;
      }
    </style>
  </defs>
  <!-- Generator: Adobe Illustrator 28.7.1, SVG Export Plug-In . SVG Version: 1.2.0 Build 142)  -->
  <g>
    <g id="Camada_1">
      <path class="cls-2" d="M493.75,164.94c-64.09-5.76-126.5,33.15-162.49,100.27l-121.99,224.12c6.85.56,111.93,3.34,146.7-58.67l82.65-146.77,63.92-117.74-8.76-1.26-.04.04Z"/>
      <path class="cls-3" d="M664.52,77.45c-13.18-7.37-26.76-13.22-40.63-17.59-.13,0-.3-.09-.39-.09-6.59-2.08-14.01.61-17.56,6.85l-41.67,74.14-1.73,3.08c-3.04,4.98-2.95,11.35.56,15.99,2.99,3.9,6.85,5.89,10.8,6.33,11.67,1.91,23.2,5.85,34.09,11.92,50.48,28.21,68.43,91.95,40.11,142.39-19.69,35.06-56.64,54.38-94.23,53.52-16.22-.56-32.57-4.9-47.7-13.43-10.88-6.15-20.21-13.95-27.93-22.88-2.43-3.12-6.16-5.42-11.01-5.94-5.77-.61-11.28,2.64-13.96,7.8l-1.35,2.43-42.11,74.79c-3.47,6.28-1.95,14,3.3,18.55.09.09.17.22.3.3,10.97,9.53,23.03,18.11,36.17,25.52,25.5,14.43,52.69,23.14,80.05,26.65,86.12,10.44,174.11-30.77,219.17-111.06,59.54-105.99,21.81-240.02-84.3-299.26h.04Z"/>
      <path class="cls-3" d="M112.48,461.17c13.18,7.37,26.76,13.22,40.63,17.59.13,0,.3.09.39.09,6.59,2.08,14.01-.61,17.56-6.85l41.67-74.14,1.74-3.08c3.04-4.98,2.95-11.35-.56-15.99-2.99-3.9-6.85-5.89-10.8-6.33-11.66-1.91-23.2-5.85-34.08-11.92-50.48-28.21-68.43-91.95-40.11-142.39,19.69-35.06,56.63-54.38,94.23-53.52,16.22.56,32.57,4.9,47.7,13.43,10.88,6.15,20.21,13.95,27.93,22.88,2.43,3.12,6.16,5.42,11.01,5.94,5.77.61,11.28-2.64,13.96-7.8l1.34-2.43,42.11-74.79c3.47-6.28,1.95-14-3.3-18.55-.09-.09-.17-.22-.3-.3-10.97-9.53-23.03-18.11-36.17-25.52-25.5-14.43-52.69-23.14-80.05-26.65-86.12-10.44-174.11,30.77-219.17,111.06-59.54,105.99-21.81,240.02,84.3,299.26h-.04Z"/>
      <path class="cls-2" d="M407.15,131.36l-12.58,22.71c39.72-16.47,86.95-26.35,125.67-20.19l46.79-84.8s-18.52-2.34-45.66,1.91c-48.44,7.54-90.46,37.53-114.22,80.38Z"/>
      <path class="cls-1" d="M354.45,555.48"/>
      <path class="cls-1" d="M220.3,555.48"/>
      <path class="cls-1" d="M169.2,554.36,183.38,554.36"/>
      <path class="cls-1" d="M138.85,555.48"/>
    </g>
  </g>
</svg>